<svg height="512pt" viewBox="-74 0 512 512" width="512pt" xmlns="http://www.w3.org/2000/svg"><path d="m355.097656 229.667969h-346.839844l-8.257812-6.699219v-24.773438c0-4.5625 3.695312-8.257812 8.257812-8.257812h346.839844c4.558594 0 8.257813 3.695312 8.257813 8.257812v24.773438zm0 0" fill="#dad8db"/><path d="m355.097656 239.484375h-346.839844c-4.5625 0-8.257812-3.699219-8.257812-8.257813v-8.257812h363.355469v8.257812c0 4.558594-3.699219 8.257813-8.257813 8.257813zm0 0" fill="#c8c5c9"/><path d="m322.0625 189.933594h-280.773438v-173.417969c0-9.121094 7.394532-16.515625 16.515626-16.515625h247.742187c9.125 0 16.515625 7.394531 16.515625 16.515625zm0 0" fill="#ff8b5a"/><path d="m297.289062 143.332031h-221.945312c-4.5625 0-8.257812-3.695312-8.257812-8.257812v-110.300781l7.238281-8.257813h222.964843c4.5625 0 8.261719 3.699219 8.261719 8.257813v107.355468zm0 0" fill="#dad8db"/><path d="m99.097656 132.128906c-13.683594 0-24.777344-11.09375-24.777344-24.773437v-90.839844h-8.257812c-4.558594 0-8.257812 3.699219-8.257812 8.257813v115.613281c0 4.5625 3.699218 8.257812 8.257812 8.257812h231.226562c4.5625 0 8.257813-3.695312 8.257813-8.257812v-8.257813zm0 0" fill="#c8c5c9"/><path d="m322.0625 501h-273.871094c-9.121094 0-16.515625-7.394531-16.515625-16.515625v-302.808594l9.613281-16.515625h280.773438c9.125 0 16.515625 7.394532 16.515625 16.515625v313.808594zm0 0" fill="#ffa95f"/><path d="m289.03125 469.5h-207.839844c-9.121094 0-16.515625-7.394531-16.515625-16.515625v-139.179687l9.644531-16.515626h214.710938c9.121094 0 16.515625 7.394532 16.515625 16.515626v148.644531zm0 0" fill="#6f6571"/><path d="m123.871094 74.324219c0 4.722656-1.320313 9.136719-3.617188 12.894531-4.351562 7.121094-12.199218 10.78125-21.15625 10.78125-13.683594 0-22.585937-9.996094-22.585937-23.675781 0-8.957031 2.5625-16.804688 9.683593-21.15625 3.757813-2.296875 8.175782-3.621094 12.902344-3.621094 13.679688 0 24.773438 11.09375 24.773438 24.777344zm0 0" fill="#6f6571"/><path d="m99.097656 66.066406c-4.566406 0-8.257812-3.699218-8.257812-8.257812v-8.257813c0-4.5625 3.691406-8.261719 8.257812-8.261719 4.5625 0 8.257813 3.699219 8.257813 8.261719v8.257813c0 4.558594-3.695313 8.257812-8.257813 8.257812zm0 0" fill="#b6b1b7"/><g fill="#5d5360"><path d="m107.355469 206.453125h-29.613281l2.417968-2.421875c3.226563-3.222656 3.226563-8.449219 0-11.675781-3.226562-3.226563-8.453125-3.226563-11.675781 0l-16.515625 16.515625c-3.226562 3.226562-3.226562 8.453125 0 11.679687l16.515625 16.515625c1.613281 1.613282 3.726563 2.417969 5.835937 2.417969 2.113282 0 4.226563-.804687 5.839844-2.417969 3.226563-3.226562 3.226563-8.453125 0-11.679687l-2.417968-2.417969h29.613281c4.566406 0 8.257812-3.699219 8.257812-8.257812 0-4.5625-3.695312-8.257813-8.257812-8.257813zm0 0"/><path d="m305.546875 206.453125h-29.613281l2.421875-2.421875c3.222656-3.222656 3.222656-8.449219 0-11.675781-3.226563-3.226563-8.453125-3.226563-11.679688 0l-16.515625 16.515625c-3.226562 3.226562-3.226562 8.453125 0 11.679687l16.515625 16.515625c1.613281 1.613282 3.726563 2.417969 5.839844 2.417969s4.226563-.804687 5.839844-2.417969c3.226562-3.226562 3.226562-8.453125 0-11.679687l-2.417969-2.417969h29.613281c4.5625 0 8.257813-3.699219 8.257813-8.257812-.003906-4.5625-3.695313-8.257813-8.261719-8.257813zm0 0"/><path d="m74.320312 412.902344v-115.613282c-9.121093 0-16.515624 7.394532-16.515624 16.515626v148.644531c0 9.125 7.394531 16.519531 16.515624 16.519531h214.710938c9.121094 0 16.515625-7.398438 16.515625-16.519531h-181.675781c-27.363282.003906-49.550782-22.179688-49.550782-49.546875zm0 0"/><path d="m264.257812 346.839844h-165.160156c-4.5625 0-8.257812-3.699219-8.257812-8.257813v-8.257812c0-4.5625 3.695312-8.257813 8.257812-8.257813h165.160156c4.558594 0 8.257813 3.695313 8.257813 8.257813v8.257812c0 4.558594-3.699219 8.257813-8.257813 8.257813zm0 0"/></g><path d="m41.289062 462.453125v-297.292969c-9.121093 0-16.515624 7.394532-16.515624 16.519532v313.804687c0 9.121094 7.394531 16.515625 16.515624 16.515625h280.773438c9.121094 0 16.515625-7.394531 16.515625-16.515625h-264.257813c-18.242187 0-33.03125-14.789063-33.03125-33.03125zm0 0" fill="#ff8b5a"/><path d="m107.355469 90.839844c-13.683594 0-24.777344-11.09375-24.777344-24.773438 0-4.71875 1.328125-9.148437 3.617187-12.902344-7.132812 4.351563-11.875 12.195313-11.875 21.160157 0 13.679687 11.09375 24.773437 24.777344 24.773437 8.960938 0 16.808594-4.75 21.15625-11.878906-3.753906 2.289062-8.179687 3.621094-12.898437 3.621094zm0 0" fill="#5d5360"/><path d="m107.355469 123.871094c0 4.5625-3.699219 8.257812-8.257813 8.257812-4.5625 0-8.257812-3.695312-8.257812-8.257812s3.695312-8.257813 8.257812-8.257813c4.558594 0 8.257813 3.695313 8.257813 8.257813zm0 0" fill="#e5646e"/><path d="m272.515625 123.871094c0 4.5625-3.695313 8.257812-8.257813 8.257812s-8.257812-3.695312-8.257812-8.257812 3.695312-8.257813 8.257812-8.257813 8.257813 3.695313 8.257813 8.257813zm0 0" fill="#e5646e"/><path d="m189.933594 123.871094c0 4.5625-3.695313 8.257812-8.257813 8.257812-4.558593 0-8.257812-3.695312-8.257812-8.257812s3.699219-8.257813 8.257812-8.257813c4.5625 0 8.257813 3.695313 8.257813 8.257813zm0 0" fill="#95d6a4"/><path d="m206.496094 74.324219c0 4.722656-1.320313 9.136719-3.617188 12.894531-4.351562 7.121094-12.199218 10.78125-21.15625 10.78125-13.683594 0-22.585937-9.996094-22.585937-23.675781 0-8.957031 2.5625-16.804688 9.683593-21.15625 3.757813-2.296875 8.175782-3.621094 12.902344-3.621094 13.679688 0 24.773438 11.09375 24.773438 24.777344zm0 0" fill="#6f6571"/><path d="m189.980469 90.839844c-13.683594 0-24.777344-11.09375-24.777344-24.773438 0-4.71875 1.328125-9.148437 3.617187-12.902344-7.132812 4.351563-11.875 12.195313-11.875 21.160157 0 13.679687 11.09375 24.773437 24.777344 24.773437 8.960938 0 16.808594-4.75 21.15625-11.878906-3.753906 2.289062-8.179687 3.621094-12.898437 3.621094zm0 0" fill="#5d5360"/><path d="m187.515625 68.484375c-3.226563-3.230469-3.226563-8.457031 0-11.679687l5.839844-5.839844c3.222656-3.226563 8.449219-3.226563 11.679687 0 3.226563 3.226562 3.222656 8.453125 0 11.679687l-5.839844 5.839844c-3.226562 3.222656-8.453124 3.226563-11.679687 0zm0 0" fill="#b6b1b7"/><path d="m289.035156 74.324219c0 4.722656-1.320312 9.136719-3.613281 12.894531-4.351563 7.121094-12.199219 10.78125-21.160156 10.78125-13.679688 0-22.585938-9.996094-22.585938-23.675781 0-8.957031 2.566407-16.804688 9.6875-21.15625 3.757813-2.296875 8.171875-3.621094 12.898438-3.621094 13.683593 0 24.773437 11.09375 24.773437 24.777344zm0 0" fill="#6f6571"/><path d="m272.519531 90.839844c-13.679687 0-24.773437-11.09375-24.773437-24.773438 0-4.71875 1.328125-9.148437 3.617187-12.902344-7.132812 4.351563-11.875 12.195313-11.875 21.160157 0 13.679687 11.09375 24.773437 24.773438 24.773437 8.964843 0 16.808593-4.75 21.160156-11.878906-3.753906 2.289062-8.183594 3.621094-12.902344 3.621094zm0 0" fill="#5d5360"/><path d="m264.257812 66.066406c-4.566406 0-8.257812-3.699218-8.257812-8.257812v-8.257813c0-4.5625 3.695312-8.261719 8.257812-8.261719s8.257813 3.699219 8.257813 8.261719v8.257813c0 4.558594-3.695313 8.257812-8.257813 8.257812zm0 0" fill="#b6b1b7"/></svg>